<svg xmlns="http://www.w3.org/2000/svg" viewBox="0 0 24 24" width="24" height="24">
  <path fill="#ffffff" d="M21.927,6.458l-2.391-5.888C19.364,0.202,18.885,0,18.368,0H5.632c-0.517,0-0.995,0.202-1.365,0.57l-2.391,5.888 C1.09,6.701,0.935,6.899,0.935,7.125v2.48c0,0.614,0.498,1.112,1.111,1.112h0.206l3.138,10.193 c0.117,0.381,0.485,0.655,0.911,0.655h12.125c0.426,0,0.794-0.274,0.911-0.655l3.138-10.193h0.206 c0.614,0,1.111-0.498,1.111-1.112v-2.48C23.065,6.899,22.909,6.701,21.927,6.458z M5.131,2.02h13.738l1.738,4.279H3.394 L5.131,2.02z M3.641,9.717c0.087-0.225,0.221-0.423,0.393-0.602h15.949c0.171,0.179,0.305,0.377,0.393,0.602H3.641z M3.641,11.172 h16.718l-2.761,8.975H6.402L3.641,11.172z M11.996,20.311c-0.707,0-1.284-0.577-1.284-1.284c0-0.707,0.577-1.284,1.284-1.284 s1.284,0.577,1.284,1.284C13.28,19.734,12.703,20.311,11.996,20.311z M9.405,16.116c-0.707,0-1.284-0.577-1.284-1.284 s0.577-1.284,1.284-1.284s1.284,0.577,1.284,1.284S10.113,16.116,9.405,16.116z M14.588,16.116c-0.707,0-1.284-0.577-1.284-1.284 s0.577-1.284,1.284-1.284s1.284,0.577,1.284,1.284S15.295,16.116,14.588,16.116z"/>
</svg>
